<mxfile host="app.diagrams.net" agent="Mozilla/5.0 (Windows NT 10.0; Win64; x64) AppleWebKit/537.36 (KHTML, like Gecko) Chrome/130.0.0.0 Safari/537.36 Edg/130.0.0.0" version="24.8.2">
  <diagram name="Page-1" id="vXY-C3scYzdVCDF7z0t4">
    <mxGraphModel dx="1105" dy="565" grid="1" gridSize="10" guides="1" tooltips="1" connect="1" arrows="1" fold="1" page="1" pageScale="1" pageWidth="850" pageHeight="1100" math="0" shadow="0">
      <root>
        <mxCell id="0" />
        <mxCell id="1" parent="0" />
        <mxCell id="seW2ypQUKg6CjhsXb_Px-1" value="" style="rounded=0;whiteSpace=wrap;html=1;" vertex="1" parent="1">
          <mxGeometry x="220" y="110" width="660" height="420" as="geometry" />
        </mxCell>
        <mxCell id="seW2ypQUKg6CjhsXb_Px-2" value="Dentist system" style="text;html=1;align=center;verticalAlign=middle;resizable=0;points=[];autosize=1;strokeColor=none;fillColor=none;fontSize=15;" vertex="1" parent="1">
          <mxGeometry x="540" y="80" width="120" height="30" as="geometry" />
        </mxCell>
        <mxCell id="seW2ypQUKg6CjhsXb_Px-3" value="New Patient" style="shape=umlActor;verticalLabelPosition=bottom;verticalAlign=top;html=1;outlineConnect=0;" vertex="1" parent="1">
          <mxGeometry x="160" y="220" width="30" height="60" as="geometry" />
        </mxCell>
        <mxCell id="seW2ypQUKg6CjhsXb_Px-4" value="Patient Registration" style="ellipse;whiteSpace=wrap;html=1;" vertex="1" parent="1">
          <mxGeometry x="310" y="130" width="140" height="60" as="geometry" />
        </mxCell>
        <mxCell id="seW2ypQUKg6CjhsXb_Px-5" value="Nurse" style="shape=umlActor;verticalLabelPosition=bottom;verticalAlign=top;html=1;outlineConnect=0;" vertex="1" parent="1">
          <mxGeometry x="160" y="110" width="30" height="60" as="geometry" />
        </mxCell>
        <mxCell id="seW2ypQUKg6CjhsXb_Px-6" value="" style="endArrow=none;html=1;rounded=0;entryX=0;entryY=0.5;entryDx=0;entryDy=0;" edge="1" parent="1" source="seW2ypQUKg6CjhsXb_Px-5" target="seW2ypQUKg6CjhsXb_Px-4">
          <mxGeometry width="50" height="50" relative="1" as="geometry">
            <mxPoint x="440" y="370" as="sourcePoint" />
            <mxPoint x="490" y="320" as="targetPoint" />
          </mxGeometry>
        </mxCell>
        <mxCell id="seW2ypQUKg6CjhsXb_Px-7" value="" style="endArrow=none;html=1;rounded=0;entryX=0;entryY=1;entryDx=0;entryDy=0;" edge="1" parent="1" target="seW2ypQUKg6CjhsXb_Px-4">
          <mxGeometry width="50" height="50" relative="1" as="geometry">
            <mxPoint x="188" y="258" as="sourcePoint" />
            <mxPoint x="414" y="172" as="targetPoint" />
          </mxGeometry>
        </mxCell>
        <mxCell id="seW2ypQUKg6CjhsXb_Px-11" value="Schedule New Appointment" style="ellipse;whiteSpace=wrap;html=1;" vertex="1" parent="1">
          <mxGeometry x="300" y="220" width="140" height="60" as="geometry" />
        </mxCell>
        <mxCell id="seW2ypQUKg6CjhsXb_Px-12" value="Change Existing Appointment" style="ellipse;whiteSpace=wrap;html=1;" vertex="1" parent="1">
          <mxGeometry x="290" y="430" width="140" height="60" as="geometry" />
        </mxCell>
        <mxCell id="seW2ypQUKg6CjhsXb_Px-13" value="Check for available time" style="ellipse;whiteSpace=wrap;html=1;" vertex="1" parent="1">
          <mxGeometry x="300" y="330" width="140" height="60" as="geometry" />
        </mxCell>
        <mxCell id="seW2ypQUKg6CjhsXb_Px-17" value="Old Patient" style="shape=umlActor;verticalLabelPosition=bottom;verticalAlign=top;html=1;outlineConnect=0;" vertex="1" parent="1">
          <mxGeometry x="160" y="360" width="30" height="60" as="geometry" />
        </mxCell>
        <mxCell id="seW2ypQUKg6CjhsXb_Px-18" value="" style="endArrow=none;html=1;rounded=0;exitX=0;exitY=0;exitDx=0;exitDy=0;" edge="1" parent="1" source="seW2ypQUKg6CjhsXb_Px-12" target="seW2ypQUKg6CjhsXb_Px-17">
          <mxGeometry width="50" height="50" relative="1" as="geometry">
            <mxPoint x="740" y="140" as="sourcePoint" />
            <mxPoint x="820" y="165" as="targetPoint" />
          </mxGeometry>
        </mxCell>
        <mxCell id="seW2ypQUKg6CjhsXb_Px-22" value="Include" style="endArrow=open;endSize=12;dashed=1;html=1;rounded=0;exitX=0.446;exitY=1.023;exitDx=0;exitDy=0;entryX=0.5;entryY=0;entryDx=0;entryDy=0;exitPerimeter=0;" edge="1" parent="1" source="seW2ypQUKg6CjhsXb_Px-11" target="seW2ypQUKg6CjhsXb_Px-13">
          <mxGeometry width="160" relative="1" as="geometry">
            <mxPoint x="380" y="350" as="sourcePoint" />
            <mxPoint x="540" y="350" as="targetPoint" />
          </mxGeometry>
        </mxCell>
        <mxCell id="seW2ypQUKg6CjhsXb_Px-23" value="Include" style="endArrow=open;endSize=12;dashed=1;html=1;rounded=0;exitX=0.5;exitY=0;exitDx=0;exitDy=0;entryX=0.5;entryY=1;entryDx=0;entryDy=0;" edge="1" parent="1" source="seW2ypQUKg6CjhsXb_Px-12" target="seW2ypQUKg6CjhsXb_Px-13">
          <mxGeometry width="160" relative="1" as="geometry">
            <mxPoint x="330" y="440" as="sourcePoint" />
            <mxPoint x="396" y="391" as="targetPoint" />
          </mxGeometry>
        </mxCell>
        <mxCell id="seW2ypQUKg6CjhsXb_Px-33" value="" style="endArrow=none;html=1;rounded=0;entryX=0;entryY=0;entryDx=0;entryDy=0;" edge="1" parent="1" source="seW2ypQUKg6CjhsXb_Px-5" target="seW2ypQUKg6CjhsXb_Px-11">
          <mxGeometry width="50" height="50" relative="1" as="geometry">
            <mxPoint x="200" y="152" as="sourcePoint" />
            <mxPoint x="320" y="170" as="targetPoint" />
          </mxGeometry>
        </mxCell>
        <mxCell id="seW2ypQUKg6CjhsXb_Px-34" value="" style="endArrow=none;html=1;rounded=0;" edge="1" parent="1" target="seW2ypQUKg6CjhsXb_Px-11">
          <mxGeometry width="50" height="50" relative="1" as="geometry">
            <mxPoint x="198" y="268" as="sourcePoint" />
            <mxPoint x="341" y="191" as="targetPoint" />
          </mxGeometry>
        </mxCell>
        <mxCell id="seW2ypQUKg6CjhsXb_Px-35" value="Fills Incomplete Form" style="ellipse;whiteSpace=wrap;html=1;" vertex="1" parent="1">
          <mxGeometry x="630" y="130" width="140" height="60" as="geometry" />
        </mxCell>
        <mxCell id="seW2ypQUKg6CjhsXb_Px-36" value="Come for appointment" style="ellipse;whiteSpace=wrap;html=1;" vertex="1" parent="1">
          <mxGeometry x="630" y="210" width="140" height="60" as="geometry" />
        </mxCell>
        <mxCell id="seW2ypQUKg6CjhsXb_Px-38" value="Patient" style="shape=umlActor;verticalLabelPosition=bottom;verticalAlign=top;html=1;outlineConnect=0;" vertex="1" parent="1">
          <mxGeometry x="920" y="280" width="30" height="60" as="geometry" />
        </mxCell>
        <mxCell id="seW2ypQUKg6CjhsXb_Px-39" value="" style="endArrow=none;html=1;rounded=0;exitX=1;exitY=0.5;exitDx=0;exitDy=0;entryX=0;entryY=0.3333333333333333;entryDx=0;entryDy=0;entryPerimeter=0;" edge="1" parent="1" source="seW2ypQUKg6CjhsXb_Px-36" target="seW2ypQUKg6CjhsXb_Px-38">
          <mxGeometry width="50" height="50" relative="1" as="geometry">
            <mxPoint x="800" y="151" as="sourcePoint" />
            <mxPoint x="920" y="180" as="targetPoint" />
          </mxGeometry>
        </mxCell>
        <mxCell id="seW2ypQUKg6CjhsXb_Px-40" value="Maintain Appointments" style="ellipse;whiteSpace=wrap;html=1;" vertex="1" parent="1">
          <mxGeometry x="480" y="380" width="140" height="60" as="geometry" />
        </mxCell>
        <mxCell id="seW2ypQUKg6CjhsXb_Px-41" value="" style="endArrow=classic;html=1;rounded=0;exitX=0.972;exitY=0.72;exitDx=0;exitDy=0;entryX=0;entryY=0;entryDx=0;entryDy=0;exitPerimeter=0;" edge="1" parent="1" source="seW2ypQUKg6CjhsXb_Px-11" target="seW2ypQUKg6CjhsXb_Px-40">
          <mxGeometry width="50" height="50" relative="1" as="geometry">
            <mxPoint x="560" y="380" as="sourcePoint" />
            <mxPoint x="610" y="330" as="targetPoint" />
          </mxGeometry>
        </mxCell>
        <mxCell id="seW2ypQUKg6CjhsXb_Px-42" value="" style="endArrow=classic;html=1;rounded=0;exitX=1;exitY=0.5;exitDx=0;exitDy=0;entryX=0;entryY=1;entryDx=0;entryDy=0;" edge="1" parent="1" source="seW2ypQUKg6CjhsXb_Px-12" target="seW2ypQUKg6CjhsXb_Px-40">
          <mxGeometry width="50" height="50" relative="1" as="geometry">
            <mxPoint x="450" y="370" as="sourcePoint" />
            <mxPoint x="511" y="399" as="targetPoint" />
          </mxGeometry>
        </mxCell>
        <mxCell id="seW2ypQUKg6CjhsXb_Px-43" value="Exclude" style="endArrow=open;endSize=12;dashed=1;html=1;rounded=0;exitX=1;exitY=0.5;exitDx=0;exitDy=0;entryX=0;entryY=0.5;entryDx=0;entryDy=0;" edge="1" parent="1" source="seW2ypQUKg6CjhsXb_Px-4" target="seW2ypQUKg6CjhsXb_Px-36">
          <mxGeometry width="160" relative="1" as="geometry">
            <mxPoint x="372" y="291" as="sourcePoint" />
            <mxPoint x="380" y="340" as="targetPoint" />
          </mxGeometry>
        </mxCell>
        <mxCell id="seW2ypQUKg6CjhsXb_Px-44" value="Nurse" style="shape=umlActor;verticalLabelPosition=bottom;verticalAlign=top;html=1;outlineConnect=0;" vertex="1" parent="1">
          <mxGeometry x="920" y="120" width="30" height="60" as="geometry" />
        </mxCell>
        <mxCell id="seW2ypQUKg6CjhsXb_Px-45" value="" style="endArrow=none;html=1;rounded=0;exitX=1;exitY=0.5;exitDx=0;exitDy=0;" edge="1" parent="1" source="seW2ypQUKg6CjhsXb_Px-35" target="seW2ypQUKg6CjhsXb_Px-44">
          <mxGeometry width="50" height="50" relative="1" as="geometry">
            <mxPoint x="780" y="250" as="sourcePoint" />
            <mxPoint x="930" y="310" as="targetPoint" />
          </mxGeometry>
        </mxCell>
        <mxCell id="seW2ypQUKg6CjhsXb_Px-47" value="Send Mail about appointment" style="ellipse;whiteSpace=wrap;html=1;" vertex="1" parent="1">
          <mxGeometry x="640" y="310" width="140" height="60" as="geometry" />
        </mxCell>
        <mxCell id="seW2ypQUKg6CjhsXb_Px-48" value="" style="endArrow=none;html=1;rounded=0;exitX=1;exitY=0;exitDx=0;exitDy=0;" edge="1" parent="1" source="seW2ypQUKg6CjhsXb_Px-47" target="seW2ypQUKg6CjhsXb_Px-44">
          <mxGeometry width="50" height="50" relative="1" as="geometry">
            <mxPoint x="780" y="170" as="sourcePoint" />
            <mxPoint x="930" y="161" as="targetPoint" />
          </mxGeometry>
        </mxCell>
        <mxCell id="seW2ypQUKg6CjhsXb_Px-49" value="" style="endArrow=none;html=1;rounded=0;exitX=1;exitY=0.5;exitDx=0;exitDy=0;" edge="1" parent="1" source="seW2ypQUKg6CjhsXb_Px-47" target="seW2ypQUKg6CjhsXb_Px-38">
          <mxGeometry width="50" height="50" relative="1" as="geometry">
            <mxPoint x="762" y="329" as="sourcePoint" />
            <mxPoint x="930" y="174" as="targetPoint" />
          </mxGeometry>
        </mxCell>
      </root>
    </mxGraphModel>
  </diagram>
</mxfile>
